<?xml version="1.0" encoding="UTF-8"?>
<svg id="Layer_1" xmlns="http://www.w3.org/2000/svg" version="1.1" viewBox="0 0 399.31 240.97">
  <!-- Generator: Adobe Illustrator 29.1.0, SVG Export Plug-In . SVG Version: 2.1.0 Build 142)  -->
  <defs>
    <style>
      .st0 {
        fill: #273776;
      }

      .st1 {
        fill: #fcc210;
      }
    </style>
  </defs>
  <g>
    <path class="st0" d="M85.67,166.52c-1.41-.08-2.85-.12-4.32-.12-12.92,0-26.08,3.15-38.07,8.87h7.24c8.18,0,10.54,5.55,10.54,9.7s-2.36,9.71-10.54,9.71h-13.93v-15.89c-6.57,3.81-12.66,8.41-18.03,13.71-.77.76-1.78,1.18-2.87,1.18-2.91,0-6.1-2.89-8.39-5.51v50.66h29.29v-19.41h8c24.58,0,45.3-6.09,45.3-34.45,0-7.67-1.52-13.72-4.22-18.45ZM29.27,150.53H7.3v13.67c7.52-3.55,12-5.34,20.67-8.17.4-1.78.83-3.62,1.3-5.5Z"/>
    <path class="st0" d="M122.91,150.53c.92.7,1.79,1.47,2.61,2.3v-2.3h-2.61ZM124.41,197.95l-.29-4.25c-.89-12.77-11.59-22.26-27.89-25.79v70.92h29.29v-41.94l-1.11,1.06Z"/>
    <path class="st0" d="M191.7,187.74l23.2-30.04,5.54-7.17h-28.4l-27.03,35.01v-35.01h-29.3v88.3h29.3v-16.52l9.56-12.39,20.7,28.91h33.01l-36.58-51.09Z"/>
    <path class="st0" d="M269.8,148.39c-23.52,0-48.43,12.78-48.43,46.29s24.91,46.29,48.43,46.29,48.44-12.78,48.44-46.29-24.91-46.29-48.44-46.29ZM269.8,216.24c-9.14,0-19.61-5.15-19.61-21.56s10.47-21.56,19.61-21.56,19.61,5.15,19.61,21.56-10.46,21.56-19.61,21.56Z"/>
    <path class="st0" d="M354.47,214.1v-63.57h-29.29v88.3h74.13v-24.73h-44.84Z"/>
  </g>
  <path class="st1" d="M37.18,128.58C9.12,128.58,0,111.78,0,96.35c0-7.84,2.39-15.26,5.8-20.04,1.28,19.1,19.7,30.87,35.56,30.87,1.11,0,2.3-.09,3.41-.17C57.47,67.02,80.49,16.63,101.47,2.13c2.13-1.45,4.86-2.13,7.76-2.13,11.6,0,26.86,10.57,26.86,25.32,0,1.88-.26,3.84-.77,5.8-9.38,34.7-38.54,78.44-74.35,92.34-4.26,11.25-7.16,23.79-8.19,29.16,14.15-3.75,30.27-6.57,44.25-6.57,4.26,0,8.36.26,12.11.85,16.54,2.56,23.19,16.37,23.19,28.82,0,7.25-2.3,14.07-6.22,17.82-1.28-18.42-20.81-29.16-44.76-29.16-20.98,0-45.45,8.19-64.21,26.69-.43.43-.94.6-1.45.6-4.86,0-14.67-13.81-14.67-20.12,0-1.36.43-2.3,1.45-2.81,12.11-5.88,16.12-7.59,27.2-11.17,1.71-7.76,4.26-17.39,7.93-28.99h-.43ZM120.23,16.2c-7.42,0-30.44,28.9-51.93,84.84,27.97-11.77,54.31-65.83,54.31-80.83,0-1.53-.26-2.73-.85-3.33-.43-.43-.94-.68-1.53-.68Z"/>
  <g>
    <path class="st1" d="M244.12,81.03c0-10.15-8.11-19.36-16.63-19.36-2.73,0-5.37.94-7.93,2.99-8.36,6.82-20.98,24.04-25.92,30.78,11.76-25.07,33.25-62.33,47.75-80.15.51-.6.68-1.28.68-2.05C242.07,8.04,231.92.03,225.27.03c-2.04,0-3.75.76-4.77,2.47-23.28,38.96-40.5,58.32-76.23,58.32-3.16,0-6.48-.09-9.98-.43h-.25c-2.56,0-3.67,2.99-3.67,6.65,0,5.89,2.73,13.56,6.57,13.56.51,0,1.19-.17,1.79-.59,2.81-1.8,5.03-2.56,6.73-2.56,3.24,0,4.61,2.9,4.61,7.5,0,15.09-14.92,48.01-23.2,48.01-.42,0-.76-.09-1.19-.26-1.62-.77-2.39-2.9-2.39-5.88,0-7.93,5.29-22.17,15.18-36.33.34-.51.51-1.02.51-1.53,0-4.1-8.95-9.38-14.66-9.38-1.62,0-2.99.43-3.76,1.36-5.96,6.99-14.23,28.4-15.26,40.42-.08.6-.08,1.11-.08,1.62,0,12.53,12.53,19.78,24.64,19.78,6.14,0,12.19-1.88,16.45-5.97,9.47-9.12,20.72-31.12,20.72-47.06,0-9.04-3.66-16.21-13.47-17.83,13.22-2.64,31.72-8.27,40.76-17.56-12.45,25.15-24.9,61.73-33.08,79.47-.26.68-.43,1.28-.43,1.87,0,4.44,7.16,7.85,12.28,7.85,2.3,0,4.26-.77,4.86-2.39,3.15-8.44,9.63-24.39,12.02-27.28,4.92,2.25,16.23,22.65,22.39,34.67h12.15l-2.49,3.22-4.12,5.33c.28.06.58.09.89.09,6.06,0,18.25-9.38,18.25-14.15,0-.6-.17-1.03-.51-1.45-2.82-3.5-27.8-29.08-33.09-32.15,11.6-2.73,28.74-8.52,35.05-15.09,3.92-4.09,5.63-8.78,5.63-13.3ZM196.11,103.54c17.14-21.49,28.56-30.36,31.8-30.36.26,0,.43.09.6.17.34.26.51.6.51,1.11,0,4.35-12.02,18.16-32.91,29.08Z"/>
    <path class="st1" d="M380.03,26.46c0-4.69-10.83-11.94-17.56-11.94-2.22,0-4.01.77-4.86,2.64-10.58,22.94-58.41,116.14-64.38,116.14l-.17-.09c-.43-.25-.68-1.02-.68-2.13,0-8.61,12.28-39.99,27.37-56.87.34-.34.51-.86.51-1.28,0-3.92-9.8-10.92-15.35-10.92-1.45,0-2.56.43-3.15,1.45-1.11,1.62-2.64,4.18-4.35,7.25-4.01-4.69-9.64-9.38-17.31-9.38-.77,0-1.53.09-2.39.17-17.22,2.22-43.48,34.79-43.48,56.45,0,6.65,2.47,12.19,8.44,15.6,3.15,1.79,5.97,2.56,8.61,2.56,5.8,0,10.57-3.84,14.75-8.95,2.99-3.75,8.95-12.2,14.92-21.58-2.9,8.11-5.45,16.03-5.45,22.34,0,.69,0,1.28.08,1.88.85,9.21,9.81,14.92,18.59,14.92,4.86,0,9.72-1.79,12.87-5.88,2.22-2.82,4.61-7.85,7-12.79,3.41-6.99,6.73-14.5,9.63-20.38-3.67,10.57-6.39,23.02-6.39,34.45,0,9.01,1.68,17.49,5.9,24.1v-15.69h11.17c-.02-.47-.02-.94-.02-1.42,0-41.27,29.76-96.18,45.28-119.12.34-.42.42-1.02.42-1.53ZM284.88,88.53c-14.07,17.99-29.68,36.32-33.26,36.32-.17,0-.25-.08-.34-.08-.34-.17-.6-.6-.6-1.36,0-8.53,25.92-52.7,33.43-52.7.25,0,.42,0,.6.09,1.1.51,1.53,3.58,1.53,6.99,0,4.6-.68,9.8-1.36,10.74Z"/>
  </g>
</svg>