<?xml version="1.0" encoding="UTF-8"?>
<svg id="Layer_1" xmlns="http://www.w3.org/2000/svg" version="1.1" viewBox="0 0 732.15 193.55">
  <!-- Generator: Adobe Illustrator 29.1.0, SVG Export Plug-In . SVG Version: 2.1.0 Build 142)  -->
  <defs>
    <style>
      .st0 {
        fill: #273776;
      }

      .st1 {
        fill: #fcc210;
      }
    </style>
  </defs>
  <g>
    <path class="st0" d="M377.44,57.54h-13c-3.71,7.05-7.65,15.11-11.46,23.93-5.73,13.29-10.03,25.86-12.83,37.37v27h29.29v-19.42h8c24.57,0,45.29-6.08,45.29-34.44s-20.72-34.44-45.29-34.44ZM383.37,101.69h-13.93v-19.42h13.93c8.18,0,10.54,5.56,10.54,9.71s-2.36,9.71-10.54,9.71Z"/>
    <path class="st0" d="M429.08,57.54v88.3h29.29V57.54h-29.29Z"/>
    <path class="st0" d="M524.55,94.75l28.73-37.21h-28.4l-27.03,35v-35h-29.29v88.3h29.29v-16.52l9.57-12.39,20.7,28.91h33l-36.57-51.09Z"/>
    <path class="st0" d="M602.65,55.4c-23.53,0-48.44,12.78-48.44,46.29s24.91,46.29,48.44,46.29,48.44-12.79,48.44-46.29-24.91-46.29-48.44-46.29ZM602.65,123.25c-9.15,0-19.61-5.16-19.61-21.56s10.46-21.56,19.61-21.56,19.61,5.15,19.61,21.56-10.47,21.56-19.61,21.56Z"/>
    <path class="st0" d="M687.32,121.11v-63.57h-29.29v88.3h74.12v-24.73h-44.83Z"/>
  </g>
  <g>
    <path class="st1" d="M37.18,128.58C9.12,128.58,0,111.78,0,96.35c0-7.84,2.39-15.26,5.8-20.04,1.28,19.1,19.7,30.87,35.56,30.87,1.11,0,2.3-.08,3.41-.17C57.47,67.02,80.49,16.63,101.47,2.13c2.13-1.45,4.86-2.13,7.76-2.13,11.6,0,26.86,10.57,26.86,25.32,0,1.88-.26,3.84-.77,5.8-9.38,34.7-38.54,78.45-74.35,92.34-4.26,11.25-7.16,23.79-8.19,29.16,14.15-3.75,30.27-6.57,44.25-6.57,4.26,0,8.36.26,12.11.85,16.54,2.56,23.19,16.37,23.19,28.82,0,7.25-2.3,14.07-6.22,17.82-1.28-18.42-20.81-29.16-44.76-29.16-20.98,0-45.45,8.19-64.21,26.69-.43.43-.94.6-1.45.6-4.86,0-14.67-13.81-14.67-20.12,0-1.36.43-2.3,1.45-2.81,12.11-5.88,16.12-7.59,27.2-11.17,1.71-7.76,4.26-17.39,7.93-28.99h-.43ZM120.23,16.2c-7.42,0-30.44,28.9-51.93,84.84,27.97-11.77,54.31-65.83,54.31-80.83,0-1.53-.26-2.73-.85-3.33-.43-.43-.94-.68-1.53-.68Z"/>
    <g>
      <path class="st1" d="M225.27.02c6.65,0,16.8,8.01,16.8,13.22,0,.77-.17,1.45-.68,2.05-14.5,17.82-35.98,55.08-47.75,80.15,4.95-6.74,17.56-23.96,25.92-30.78,2.56-2.05,5.2-2.98,7.93-2.98,8.53,0,16.63,9.21,16.63,19.36,0,4.52-1.71,9.21-5.63,13.3-6.31,6.57-23.45,12.36-35.04,15.09,5.29,3.07,30.27,28.65,33.08,32.15.34.43.51.85.51,1.45,0,4.77-12.19,14.15-18.25,14.15-1.36,0-2.47-.51-2.98-1.62-3.58-7.76-19.7-38.88-25.84-41.7-2.39,2.9-8.87,18.84-12.02,27.29-.6,1.62-2.56,2.39-4.86,2.39-5.12,0-12.28-3.41-12.28-7.84,0-.6.17-1.19.43-1.88,8.19-17.74,20.63-54.31,33.08-79.47-9.04,9.29-27.54,14.92-40.76,17.56,9.81,1.62,13.47,8.78,13.47,17.82,0,15.95-11.26,37.94-20.72,47.07-4.26,4.09-10.32,5.97-16.46,5.97-12.11,0-24.64-7.25-24.64-19.78,0-.51,0-1.02.08-1.62,1.02-12.02,9.29-33.42,15.26-40.42.77-.94,2.13-1.36,3.75-1.36,5.71,0,14.67,5.29,14.67,9.38,0,.51-.17,1.02-.51,1.54-9.89,14.15-15.18,28.39-15.18,36.32,0,2.98.77,5.12,2.39,5.88.43.17.77.26,1.19.26,8.27,0,23.19-32.91,23.19-48,0-4.6-1.36-7.5-4.6-7.5-1.71,0-3.92.77-6.74,2.56-.6.43-1.28.6-1.79.6-3.84,0-6.57-7.67-6.57-13.56,0-3.67,1.11-6.65,3.67-6.65h.26c3.5.34,6.82.43,9.98.43,35.73,0,52.95-19.36,76.23-58.32,1.02-1.71,2.73-2.47,4.77-2.47ZM227.91,73.18c-3.24,0-14.67,8.87-31.8,30.35,20.89-10.91,32.91-24.73,32.91-29.08,0-.51-.17-.85-.51-1.11-.17-.08-.34-.17-.6-.17Z"/>
      <path class="st1" d="M317.27,140.12c0-11.43,2.73-23.88,6.4-34.45-2.9,5.88-6.22,13.39-9.64,20.38-2.39,4.95-4.77,9.98-6.99,12.79-3.15,4.09-8.02,5.88-12.88,5.88-8.78,0-17.74-5.71-18.59-14.92-.09-.6-.09-1.19-.09-1.88,0-6.31,2.56-14.24,5.46-22.34-5.97,9.38-11.94,17.82-14.92,21.57-4.18,5.12-8.95,8.95-14.75,8.95-2.64,0-5.46-.77-8.61-2.56-5.97-3.41-8.44-8.95-8.44-15.6,0-21.66,26.26-54.23,43.49-56.45.85-.08,1.62-.17,2.39-.17,7.67,0,13.3,4.69,17.31,9.38,1.71-3.07,3.24-5.63,4.35-7.25.6-1.02,1.71-1.45,3.15-1.45,5.54,0,15.35,6.99,15.35,10.91,0,.43-.17.94-.51,1.28-15.09,16.88-27.37,48.26-27.37,56.87,0,1.11.26,1.88.68,2.13l.17.08c5.97,0,53.8-93.2,64.38-116.13.85-1.88,2.64-2.64,4.86-2.64,6.74,0,17.56,7.25,17.56,11.94,0,.51-.08,1.11-.43,1.54-15.52,22.94-45.28,77.85-45.28,119.12,0,11.08,2.13,21.23,7.25,29.5-18.16-4.01-24.3-19.27-24.3-36.49ZM286.24,77.79c0-3.41-.43-6.48-1.53-6.99-.17-.08-.34-.08-.6-.08-7.5,0-33.42,44.17-33.42,52.69,0,.77.26,1.19.6,1.36.09,0,.17.08.34.08,3.58,0,19.18-18.33,33.25-36.32.68-.94,1.36-6.14,1.36-10.74Z"/>
    </g>
  </g>
</svg>